<svg width="84" height="40" viewBox="0 0 84 40" fill="none" xmlns="http://www.w3.org/2000/svg">
<g clip-path="url(#clip0_7674_49557)">
<path d="M36.8809 20.8135H41.0691L43.4926 35.3825H43.5454L45.9688 20.8135H50.0515V39.9407H47.5753V22.7221H47.5226L44.8353 39.9407H42.2007L39.2496 22.7221H39.1968V39.9407H36.8789V20.8135H36.8809Z" fill="#231815"/>
<path d="M67.5898 20.8135H70.2244V37.7157H74.6491V39.9407H67.5898V20.8135Z" fill="#231815"/>
<path d="M76.9414 20.8135H79.5759V37.7157H84.0007V39.9407H76.9414V20.8135Z" fill="#231815"/>
<path d="M60.5586 20.7588L65.1338 36.5642L61.1547 26.1917L60.5586 20.7588Z" fill="#7D4698"/>
<path d="M52.6094 38.768L55.4237 32.3896L60.5442 38.1489L52.6094 38.768Z" fill="#FFFEF7"/>
<path d="M61.1522 26.1917L55.4219 32.3893L60.5561 20.7588L61.1522 26.1917Z" fill="#E95383"/>
<path d="M60.543 38.1487L65.1319 36.5645L62.7495 39.9414L60.543 38.1487Z" fill="#00366B"/>
<path d="M52.6094 38.7676L60.5442 38.1484L62.7507 39.9411H54.9507L52.6094 38.7676Z" fill="#7FA1BC"/>
<path d="M52.6094 34.9716V38.7672L55.4237 32.3888L54.5833 31.4434L52.6094 34.9716Z" fill="#00366B"/>
<path d="M54.582 31.4438L55.4224 32.3893L60.5566 20.7588L54.582 31.4438Z" fill="#19668C"/>
<path d="M60.6753 35.5359L61.1522 26.1914L55.4219 32.3889L58.8655 36.2612L60.6753 35.5359Z" fill="#FFFEF7"/>
<path d="M58.8672 36.2614L60.5441 38.1484L60.677 35.5361L58.8672 36.2614Z" fill="#EAF6FD"/>
<path d="M64.1977 34.127L60.6759 35.5363L60.543 38.1486L65.1319 36.5643L64.1977 34.127Z" fill="#D3EDFB"/>
<path d="M64.1976 34.1265L61.1527 26.1914L60.6758 35.5359L64.1976 34.1265Z" fill="#EAF6FD"/>
<path d="M55.4237 32.3896L52.6094 38.768L58.8674 36.2619L55.4237 32.3896Z" fill="#EAF6FD"/>
<path d="M52.6094 38.7679L60.5442 38.1487L58.8674 36.2617L52.6094 38.7679Z" fill="#D3EDFB"/>
<path d="M24.4207 36.3947V16.1293L27.6024 16.1234L30.1803 12.5225H21.3386L20.3008 22.3406L20.293 36.8664L21.8506 39.9996H27.6239L30.192 36.3967L24.4207 36.3947Z" fill="#231815"/>
<path d="M2.25928 14.2332L0.390879 17.0362V40.0003H4.51857V10.7188H0L2.25928 14.2332Z" fill="#231815"/>
<path d="M17.9492 3.60295L20.529 0H9.97724L8.93946 9.74152L8.92969 40H11.7323L13.0593 38.0894V20.8216H15.8834L18.5903 17.2088H13.0593V3.60491L17.9492 3.60295Z" fill="#231815"/>
<path d="M2.25928 14.2332L4.51857 10.7207H0L2.25928 14.2332Z" fill="url(#paint0_linear_7674_49557)"/>
<path d="M9.97528 0L13.0574 3.60491L8.9375 9.74152L9.97528 0Z" fill="url(#paint1_linear_7674_49557)"/>
<path d="M24.4219 36.3975L27.6251 40.0004L30.1932 36.3994L24.4219 36.3975Z" fill="url(#paint2_linear_7674_49557)"/>
</g>
<defs>
<linearGradient id="paint0_linear_7674_49557" x1="0" y1="12.476" x2="4.51857" y2="12.476" gradientUnits="userSpaceOnUse">
<stop stop-color="#5C5B59"/>
<stop offset="1" stop-color="white"/>
</linearGradient>
<linearGradient id="paint1_linear_7674_49557" x1="8.9375" y1="4.87076" x2="13.0574" y2="4.87076" gradientUnits="userSpaceOnUse">
<stop stop-color="#5C5B59"/>
<stop offset="1" stop-color="white"/>
</linearGradient>
<linearGradient id="paint2_linear_7674_49557" x1="24.4219" y1="38.1999" x2="30.1932" y2="38.1999" gradientUnits="userSpaceOnUse">
<stop stop-color="white"/>
<stop offset="0.23" stop-color="#CCCBCB"/>
<stop offset="0.48" stop-color="#9C9B9A"/>
<stop offset="0.7" stop-color="#797876"/>
<stop offset="0.88" stop-color="#636260"/>
<stop offset="1" stop-color="#5C5B59"/>
</linearGradient>
<clipPath id="clip0_7674_49557">
<rect width="84" height="40" fill="white"/>
</clipPath>
</defs>
</svg>
